<svg width="84" height="84" viewBox="0 0 84 84" fill="none" xmlns="http://www.w3.org/2000/svg">
<path fill-rule="evenodd" clip-rule="evenodd" d="M41.9999 83.6668C65.0124 83.6668 83.6666 65.0127 83.6666 42.0002C83.6666 18.9877 65.0124 0.333496 41.9999 0.333496C18.9874 0.333496 0.333252 18.9877 0.333252 42.0002C0.333252 65.0127 18.9874 83.6668 41.9999 83.6668ZM50.4583 27.2918C51.0435 27.8778 51.3722 28.672 51.3722 29.5002C51.3722 30.3283 51.0435 31.1226 50.4583 31.7085L40.1666 42.0002L50.4583 52.2918C50.7653 52.5779 51.0115 52.9229 51.1823 53.3063C51.3531 53.6896 51.445 54.1034 51.4524 54.523C51.4598 54.9426 51.3826 55.3594 51.2254 55.7485C51.0683 56.1376 50.8343 56.4911 50.5376 56.7878C50.2408 57.0846 49.8874 57.3185 49.4982 57.4757C49.1091 57.6329 48.6923 57.71 48.2727 57.7026C47.8532 57.6952 47.4393 57.6034 47.056 57.4326C46.6727 57.2618 46.3277 57.0155 46.0416 56.7085L33.5416 44.2085C32.9564 43.6226 32.6277 42.8283 32.6277 42.0002C32.6277 41.172 32.9564 40.3778 33.5416 39.7918L46.0416 27.2918C46.6275 26.7066 47.4218 26.3779 48.2499 26.3779C49.078 26.3779 49.8723 26.7066 50.4583 27.2918Z" fill="#320064"/>
</svg>
