<svg width="84" height="84" viewBox="0 0 84 84" fill="none" xmlns="http://www.w3.org/2000/svg">
<path fill-rule="evenodd" clip-rule="evenodd" d="M42.0001 0.333164C18.9876 0.333166 0.333399 18.9873 0.333401 41.9998C0.333403 65.0123 18.9876 83.6665 42.0001 83.6665C65.0126 83.6665 83.6667 65.0123 83.6667 41.9998C83.6667 18.9873 65.0126 0.333162 42.0001 0.333164ZM33.5417 56.7082C32.9565 56.1222 32.6278 55.328 32.6278 54.4998C32.6278 53.6717 32.9565 52.8774 33.5417 52.2915L43.8334 41.9998L33.5417 31.7082C33.2347 31.4221 32.9885 31.0771 32.8177 30.6937C32.6468 30.3104 32.555 29.8966 32.5476 29.477C32.5402 29.0574 32.6174 28.6406 32.7746 28.2515C32.9317 27.8624 33.1657 27.5089 33.4624 27.2122C33.7592 26.9154 34.1126 26.6815 34.5017 26.5243C34.8909 26.3672 35.3077 26.29 35.7272 26.2974C36.1468 26.3048 36.5607 26.3966 36.944 26.5674C37.3273 26.7382 37.6723 26.9845 37.9584 27.2915L50.4584 39.7915C51.0436 40.3774 51.3723 41.1717 51.3723 41.9998C51.3723 42.828 51.0436 43.6222 50.4584 44.2082L37.9584 56.7082C37.3725 57.2934 36.5782 57.6221 35.7501 57.6221C34.9219 57.6221 34.1277 57.2934 33.5417 56.7082Z" fill="#c896ff"/>
</svg>
